# xmcd
#
# Track frame offsets: 
#        150
#        19617
#        33193
#        36329
#        51812
#        63255
#        77247
#        95451
#        114809
#        125350
#        140640
#        158145
#        175367
#        188810
#
# Disc length: 2746 seconds
#
# Revision: 1
# Processed by: cddbd v1.5.2PL0 Copyright (c) Steve Scherf et al.
# Submitted via: ExactAudioCopy v0.90b4
#
DISCID=b20ab80e
DTITLE=Anderson, Al - After Hours
DYEAR=1900
DGENRE=Country
TTITLE0=Love Make a Fool of Me
TTITLE1=It's Only Natural
TTITLE2=Interlude
TTITLE3=Better Word For Love
TTITLE4=Blues About You Baby
TTITLE5=Do Nothin' Day
TTITLE6=Trip Around The Sun
TTITLE7=Right On Time
TTITLE8=In My Dreams
TTITLE9=Movin' Into THe Night
TTITLE10=What's A Thousand Miles
TTITLE11=Let's Get Away For The Weekend
TTITLE12=Another Place I Don't Belong
TTITLE13=Two Survivors
EXTD=
EXTT0=
EXTT1=
EXTT2=
EXTT3=
EXTT4=
EXTT5=
EXTT6=
EXTT7=
EXTT8=
EXTT9=
EXTT10=
EXTT11=
EXTT12=
EXTT13=
PLAYORDER=
